<?xml version="1.0" encoding="UTF-8"?>
<svg xmlns="http://www.w3.org/2000/svg" xmlns:xlink="http://www.w3.org/1999/xlink" width="365pt" height="365pt" viewBox="0 0 365 365" version="1.1">
<g id="surface1">
<path style=" stroke:none;fill-rule:nonzero;fill:rgb(0.799561%,0.799561%,0.799561%);fill-opacity:1;" d="M 116.691406 176.078125 L 272.53125 176.078125 L 316.640625 249.355469 C 319.703125 243.894531 326.273438 225.3125 328.617188 215.476563 C 331.148438 204.863281 331.382813 202.117188 331.371094 182.773438 C 331.359375 160.476563 330.144531 151.757813 324.746094 135.3125 C 321.160156 124.382813 309.675781 102.492188 302.605469 93.105469 C 289.5 75.707031 268.105469 57.773438 249.019531 48.179688 C 238.816406 43.054688 219.597656 36.875 207.539063 34.84375 C 193.996094 32.5625 170.386719 32.515625 157.984375 34.742188 C 130.675781 39.652344 107.324219 50.460938 86.292969 67.929688 C 60.457031 89.386719 42.847656 119.234375 35.558594 153.933594 C 32.285156 169.53125 32.242188 194.1875 35.46875 210.34375 C 40.9375 237.734375 53.878906 263.773438 71.421875 282.683594 L 77.167969 288.875 L 116.15625 288.875 Z M 161.949219 363.976563 C 104.230469 357.261719 52.410156 322.9375 23.757813 272.441406 C -2.058594 226.949219 -7.085938 172.84375 9.90625 123.429688 C 37.027344 44.5625 113.179688 -5.722656 196.050781 0.523438 C 281.304688 6.945313 350.386719 71.078125 362.964844 155.476563 C 375.511719 239.644531 329.09375 320.191406 249.503906 352.359375 C 224.03125 362.652344 189.726563 367.207031 161.949219 363.976563 "/>
</g>
</svg>
